<svg id="instagram" xmlns="http://www.w3.org/2000/svg" xmlns:xlink="http://www.w3.org/1999/xlink" width="39.5" height="39.5" viewBox="0 0 39.5 39.5">
  <defs>
    <linearGradient id="linear-gradient" x1="-0.09" y1="1.239" x2="-0.064" y2="1.264" gradientUnits="objectBoundingBox">
      <stop offset="0" stop-color="#ffc107"/>
      <stop offset="0.507" stop-color="#f44336"/>
      <stop offset="0.99" stop-color="#9c27b0"/>
    </linearGradient>
    <linearGradient id="linear-gradient-2" x1="-0.665" y1="1.992" x2="-0.643" y2="2.014" xlink:href="#linear-gradient"/>
    <linearGradient id="linear-gradient-3" x1="-12.08" y1="15.925" x2="-12.058" y2="15.947" xlink:href="#linear-gradient"/>
  </defs>
  <path id="Path_60" data-name="Path 60" d="M27.156,0H12.344A12.345,12.345,0,0,0,0,12.344V27.156A12.345,12.345,0,0,0,12.344,39.5H27.156A12.345,12.345,0,0,0,39.5,27.156V12.344A12.345,12.345,0,0,0,27.156,0ZM35.8,27.156A8.65,8.65,0,0,1,27.156,35.8H12.344A8.65,8.65,0,0,1,3.7,27.156V12.344A8.65,8.65,0,0,1,12.344,3.7H27.156A8.65,8.65,0,0,1,35.8,12.344Z" fill="url(#linear-gradient)"/>
  <path id="Path_61" data-name="Path 61" d="M137.875,128a9.875,9.875,0,1,0,9.875,9.875A9.876,9.876,0,0,0,137.875,128Zm0,16.047a6.172,6.172,0,1,1,6.172-6.172A6.181,6.181,0,0,1,137.875,144.047Z" transform="translate(-118.125 -118.125)" fill="url(#linear-gradient-2)"/>
  <ellipse id="Ellipse_1" data-name="Ellipse 1" cx="1.316" cy="1.316" rx="1.316" ry="1.316" transform="translate(29.05 7.819)" fill="url(#linear-gradient-3)"/>
</svg>
