<svg id="facebook" xmlns="http://www.w3.org/2000/svg" width="39.5" height="39.5" viewBox="0 0 39.5 39.5">
  <path id="Path_58" data-name="Path 58" d="M34.563,0H4.938A4.942,4.942,0,0,0,0,4.938V34.563A4.943,4.943,0,0,0,4.938,39.5H34.563A4.943,4.943,0,0,0,39.5,34.563V4.938A4.943,4.943,0,0,0,34.563,0Z" fill="#1976d2"/>
  <path id="Path_59" data-name="Path 59" d="M210.516,108.344h-6.172v-4.938c0-1.363,1.106-1.234,2.469-1.234h2.469V96h-4.938a7.406,7.406,0,0,0-7.406,7.406v4.938H192v6.172h4.938v13.578h7.406V114.516h3.7Z" transform="translate(-177.187 -88.594)" fill="#fafafa"/>
</svg>
