<svg xmlns="http://www.w3.org/2000/svg" width="48.616" height="39.5" viewBox="0 0 48.616 39.5">
  <path id="twitter" d="M48.616,52.676a20.78,20.78,0,0,1-5.743,1.574,9.911,9.911,0,0,0,4.385-5.509,19.918,19.918,0,0,1-6.32,2.413A9.966,9.966,0,0,0,23.7,57.969a10.262,10.262,0,0,0,.231,2.273A28.211,28.211,0,0,1,3.385,49.817,9.969,9.969,0,0,0,6.448,63.138a9.843,9.843,0,0,1-4.5-1.228v.109A10.012,10.012,0,0,0,9.93,71.813a9.947,9.947,0,0,1-2.613.328,8.813,8.813,0,0,1-1.887-.17,10.062,10.062,0,0,0,9.313,6.943A20.026,20.026,0,0,1,2.385,83.164,18.666,18.666,0,0,1,0,83.028,28.059,28.059,0,0,0,15.29,87.5c18.34,0,28.367-15.192,28.367-28.361,0-.441-.015-.866-.036-1.288A19.883,19.883,0,0,0,48.616,52.676Z" transform="translate(0 -48)" fill="#03a9f4"/>
</svg>
